# xmcd CD database file
#
# Track frame offsets:
#	150
#	18957
#	37510
#	59642
#	86747
#	108120
#	124432
#	149352
#	164857
#	185657
#	209185
#	232030
#	251417
#
# Disc length: 3723 seconds
#
# Revision: 0
# Processed by: cddbd v1.5.1PL0 Copyright (c) Steve Scherf et al.
# Submitted via: CDex 1.51
#
DISCID=c10e890d
DTITLE=布袋寅泰 - Scorpio Rising
DYEAR=2002
DGENRE=Rock
TTITLE0=Scorpio Rising
TTITLE1=Russian Roulette
TTITLE2=Venus
TTITLE3=My Name Is Desire
TTITLE4=Psychobilly and Pussycat
TTITLE5=Shock Treatment
TTITLE6=Babylon
TTITLE7=I Hate You
TTITLE8=Double Trouble
TTITLE9=Mr.Lonely
TTITLE10=London Blue
TTITLE11=R&R Never DIE
TTITLE12=Dreaming In The Midnight City
EXTD=YEAR: 2002
EXTT0=
EXTT1=
EXTT2=
EXTT3=
EXTT4=
EXTT5=
EXTT6=
EXTT7=
EXTT8=
EXTT9=
EXTT10=
EXTT11=
EXTT12=
PLAYORDER=
